<svg height="512" viewBox="0 0 64 64" width="512" xmlns="http://www.w3.org/2000/svg"><path d="m4 7h40v48h-40z" fill="#bdfdff"/><path d="m17 25h-8v-8h8v1z" fill="#ffda44"/><path d="m34 7v4a2.006 2.006 0 0 1 -2 2h-2l-2-2h-8l-2 2h-2a2.006 2.006 0 0 1 -2-2v-7a1 1 0 0 1 1-1h18a1 1 0 0 1 1 1z" fill="#b39a7c"/><path d="m59 40h-16v-11h13z" fill="#ebe5dd"/><path d="m43 29v11h-16l3-11z" fill="#ebe5dd"/><path d="m27 40h32v19h-32z" fill="#c0ab91"/><g fill="#ffda44"><path d="m31 51h6v4h-6z"/><path d="m48 40v7l-3-2-2 2-2-2-3 2v-7h5z"/><path d="m53 23a7 7 0 0 1 7 7 7.03 7.03 0 0 1 -7 7 7 7 0 0 1 -7-7 5.365 5.365 0 0 1 .08-.99 6.98 6.98 0 0 1 6.92-6.01z"/></g><path d="m8 29h2v2h-2z"/><path d="m12 29h6v2h-6z"/><path d="m8 34h10v2h-10z"/><path d="m8 39h12v2h-12z"/><path d="m8 44h2v2h-2z"/><path d="m12 44h8v2h-8z"/><path d="m8 49h4v2h-4z"/><path d="m14 49h6v2h-6z"/><path d="m58.806 35.487a7.992 7.992 0 1 0 -13.543-7.487h-.263v-21a1 1 0 0 0 -1-1h-9v-2a2 2 0 0 0 -2-2h-18a2 2 0 0 0 -2 2v2h-9a1 1 0 0 0 -1 1v48a1 1 0 0 0 1 1h22v3a1 1 0 0 0 1 1h32a1 1 0 0 0 1-1v-19a1.016 1.016 0 0 0 -.035-.263zm-5.806-11.487a6 6 0 1 1 -6 6 6.006 6.006 0 0 1 6-6zm0 14a7.945 7.945 0 0 0 4.1-1.146l.591 2.146h-13.691v-9h1a8.009 8.009 0 0 0 8 8zm-24.691 1 2.455-9h11.236v9zm10.691 2h8v4.131l-1.445-.963a1 1 0 0 0 -1.262.125l-1.293 1.293-1.293-1.293a1 1 0 0 0 -1.262-.125l-1.445.963zm-24-37h18v7a1 1 0 0 1 -1 1h-1.586l-1.707-1.707a1 1 0 0 0 -.707-.293h-8a1 1 0 0 0 -.707.293l-1.707 1.707h-1.586a1 1 0 0 1 -1-1zm-10 50v-46h8v3a3 3 0 0 0 3 3h2a1 1 0 0 0 .707-.293l1.707-1.707h7.172l1.707 1.707a1 1 0 0 0 .707.293h2a3 3 0 0 0 3-3v-3h8v20h-13a1 1 0 0 0 -.965.737l-3 11a1.016 1.016 0 0 0 -.035.263v14zm23 4v-17h9v6a1 1 0 0 0 1.555.832l2.318-1.545 1.42 1.42a1 1 0 0 0 1.414 0l1.42-1.42 2.318 1.545a1 1 0 0 0 1.555-.832v-6h9v17z"/><path d="m37 50h-6a1 1 0 0 0 -1 1v4a1 1 0 0 0 1 1h6a1 1 0 0 0 1-1v-4a1 1 0 0 0 -1-1zm-1 4h-4v-2h4z"/><path d="m52 34a1 1 0 0 0 .707-.293l5-5-1.414-1.414-4.293 4.293-2.293-2.293-1.414 1.414 3 3a1 1 0 0 0 .707.293z"/><path d="m9 26h8a1 1 0 0 0 1-1v-6.586l1.707-1.707-1.414-1.414-.833.833a.974.974 0 0 0 -.46-.126h-8a1 1 0 0 0 -1 1v8a1 1 0 0 0 1 1zm1-8h5.586l-2.586 2.586-1.293-1.293-1.414 1.414 2 2a1 1 0 0 0 1.414 0l2.293-2.293v3.586h-6z"/><path d="m18 6h12v2h-12z"/><path d="m21 19h12v2h-12z"/><path d="m21 24h2v2h-2z"/><path d="m25 24h8v2h-8z"/></svg>